<svg width="92" height="92" viewBox="0 0 92 92" fill="none" xmlns="http://www.w3.org/2000/svg">
<rect width="92" height="92" rx="46" fill="#FFD25F"/>
<path d="M24.1272 54.6853C22.9439 54.6853 21.8522 54.4686 20.8522 54.0353C19.8689 53.5853 19.0605 52.952 18.4272 52.1353L20.6772 49.4353C21.1605 50.0686 21.6689 50.552 22.2022 50.8853C22.7355 51.202 23.3105 51.3603 23.9272 51.3603C25.5772 51.3603 26.4022 50.3936 26.4022 48.4603V40.1353H20.2522V36.8853H30.4272V48.2353C30.4272 50.402 29.8939 52.0186 28.8272 53.0853C27.7605 54.152 26.1939 54.6853 24.1272 54.6853ZM40.1776 54.6853C38.7776 54.6853 37.4359 54.502 36.1526 54.1353C34.8692 53.752 33.8359 53.2603 33.0526 52.6603L34.4276 49.6103C35.1776 50.1436 36.0609 50.5853 37.0776 50.9353C38.1109 51.2686 39.1526 51.4353 40.2026 51.4353C41.0026 51.4353 41.6442 51.3603 42.1276 51.2103C42.6276 51.0436 42.9942 50.8186 43.2276 50.5353C43.4609 50.252 43.5776 49.927 43.5776 49.5603C43.5776 49.0936 43.3942 48.727 43.0276 48.4603C42.6609 48.177 42.1776 47.952 41.5776 47.7853C40.9776 47.602 40.3109 47.4353 39.5776 47.2853C38.8609 47.1186 38.1359 46.9186 37.4026 46.6853C36.6859 46.452 36.0276 46.152 35.4276 45.7853C34.8276 45.4186 34.3359 44.9353 33.9526 44.3353C33.5859 43.7353 33.4026 42.9686 33.4026 42.0353C33.4026 41.0353 33.6692 40.127 34.2026 39.3103C34.7526 38.477 35.5692 37.8186 36.6526 37.3353C37.7526 36.8353 39.1276 36.5853 40.7776 36.5853C41.8776 36.5853 42.9609 36.7186 44.0276 36.9853C45.0942 37.2353 46.0359 37.6186 46.8526 38.1353L45.6026 41.2103C44.7859 40.7436 43.9692 40.402 43.1526 40.1853C42.3359 39.952 41.5359 39.8353 40.7526 39.8353C39.9692 39.8353 39.3276 39.927 38.8276 40.1103C38.3276 40.2936 37.9692 40.5353 37.7526 40.8353C37.5359 41.1186 37.4276 41.452 37.4276 41.8353C37.4276 42.2853 37.6109 42.652 37.9776 42.9353C38.3442 43.202 38.8276 43.4186 39.4276 43.5853C40.0276 43.752 40.6859 43.9186 41.4026 44.0853C42.1359 44.252 42.8609 44.4436 43.5776 44.6603C44.3109 44.877 44.9776 45.1686 45.5776 45.5353C46.1776 45.902 46.6609 46.3853 47.0276 46.9853C47.4109 47.5853 47.6026 48.3436 47.6026 49.2603C47.6026 50.2436 47.3276 51.1436 46.7776 51.9603C46.2276 52.777 45.4026 53.4353 44.3026 53.9353C43.2192 54.4353 41.8442 54.6853 40.1776 54.6853ZM52.0582 54.5853C51.3916 54.5853 50.8166 54.3603 50.3332 53.9103C49.8666 53.4436 49.6332 52.852 49.6332 52.1353C49.6332 51.4186 49.8666 50.8436 50.3332 50.4103C50.8166 49.9603 51.3916 49.7353 52.0582 49.7353C52.7416 49.7353 53.3166 49.9603 53.7832 50.4103C54.2499 50.8436 54.4832 51.4186 54.4832 52.1353C54.4832 52.852 54.2499 53.4436 53.7832 53.9103C53.3166 54.3603 52.7416 54.5853 52.0582 54.5853ZM65.2879 54.6853C63.9379 54.6853 62.6796 54.4686 61.5129 54.0353C60.3629 53.5853 59.3629 52.952 58.5129 52.1353C57.6629 51.3186 56.9963 50.3603 56.5129 49.2603C56.0463 48.1603 55.8129 46.952 55.8129 45.6353C55.8129 44.3186 56.0463 43.1103 56.5129 42.0103C56.9963 40.9103 57.6629 39.952 58.5129 39.1353C59.3796 38.3186 60.3879 37.6936 61.5379 37.2603C62.6879 36.8103 63.9463 36.5853 65.3129 36.5853C66.8296 36.5853 68.1963 36.852 69.4129 37.3853C70.6463 37.902 71.6796 38.6686 72.5129 39.6853L69.9129 42.0853C69.3129 41.402 68.6463 40.8936 67.9129 40.5603C67.1796 40.2103 66.3796 40.0353 65.5129 40.0353C64.6963 40.0353 63.9463 40.1686 63.2629 40.4353C62.5796 40.702 61.9879 41.0853 61.4879 41.5853C60.9879 42.0853 60.5963 42.677 60.3129 43.3603C60.0463 44.0436 59.9129 44.802 59.9129 45.6353C59.9129 46.4686 60.0463 47.227 60.3129 47.9103C60.5963 48.5936 60.9879 49.1853 61.4879 49.6853C61.9879 50.1853 62.5796 50.5686 63.2629 50.8353C63.9463 51.102 64.6963 51.2353 65.5129 51.2353C66.3796 51.2353 67.1796 51.0686 67.9129 50.7353C68.6463 50.3853 69.3129 49.8603 69.9129 49.1603L72.5129 51.5603C71.6796 52.577 70.6463 53.352 69.4129 53.8853C68.1963 54.4186 66.8213 54.6853 65.2879 54.6853Z" fill="black"/>
</svg>
